<svg xmlns="http://www.w3.org/2000/svg" xmlns:xlink="http://www.w3.org/1999/xlink" data-name="Layer 1" viewBox="0 0 1000 1000"><defs><linearGradient id="a" x1="630.28" x2="630.28" y1="735.97" y2="-226.71" gradientUnits="userSpaceOnUse"><stop offset="0" stop-color="#ffffff" class="stopColorfff svgShape"/><stop offset="1" stop-color="#aebddf" class="stopColoraebddf svgShape"/></linearGradient><linearGradient id="f" x1="811.88" x2="811.88" y1="740.66" y2="237.82" xlink:href="#a"/><linearGradient id="g" x1="702.33" x2="702.33" y1="323.68" y2="94.31" xlink:href="#a"/><linearGradient id="h" x1="366.8" x2="311.55" y1="707.95" y2="650.08" xlink:href="#a"/><linearGradient id="i" x1="209.93" x2="409.78" y1="588.12" y2="581.82" xlink:href="#a"/><linearGradient id="b" x1="329.79" x2="188.88" y1="518.58" y2="518.58" gradientUnits="userSpaceOnUse"><stop offset="0" stop-color="#acbdde" class="stopColoracbdde svgShape"/><stop offset="1" stop-color="#2e405c" class="stopColor2e405c svgShape"/></linearGradient><linearGradient id="j" x1="282.36" x2="282.36" y1="463.08" y2="532.94" xlink:href="#b"/><linearGradient id="k" x1="439.61" x2="276.18" y1="567.21" y2="406.02" xlink:href="#a"/><linearGradient id="l" x1="174" x2="204.22" y1="414.81" y2="506.6" xlink:href="#a"/><linearGradient id="m" x1="349.07" x2="96.84" y1="286.77" y2="480.05" xlink:href="#a"/><linearGradient id="n" x1="365.1" x2="351.66" y1="191.87" y2="324.7" xlink:href="#a"/><linearGradient id="o" x1="486.99" x2="282.35" y1="77.83" y2="453.8" xlink:href="#a"/><linearGradient id="p" x1="137.7" x2="211.33" y1="408.9" y2="285.02" xlink:href="#a"/><linearGradient id="q" x1="527.3" x2="527.3" y1="968.53" y2="698.36" xlink:href="#a"/><linearGradient id="r" x1="502.3" x2="502.3" y1="943.73" y2="857.7" xlink:href="#a"/><linearGradient id="s" x1="499.12" x2="509.96" y1="844.88" y2="651.32" xlink:href="#a"/><linearGradient id="t" x1="68.17" x2="893.29" y1="788.11" y2="788.11" xlink:href="#b"/><linearGradient id="u" x1="779.55" x2="757.1" y1="750.72" y2="892.67" xlink:href="#b"/><linearGradient id="v" x1="722.84" x2="700.38" y1="743.29" y2="885.24" xlink:href="#b"/><linearGradient id="w" x1="729.59" x2="707.14" y1="744.36" y2="886.3" xlink:href="#b"/><linearGradient id="x" x1="736.34" x2="713.89" y1="745.43" y2="887.37" xlink:href="#b"/><linearGradient id="y" x1="743.09" x2="720.64" y1="746.5" y2="888.44" xlink:href="#b"/><linearGradient id="z" x1="812.69" x2="790.24" y1="757.51" y2="899.45" xlink:href="#b"/><linearGradient id="A" x1="819.45" x2="796.99" y1="758.58" y2="900.52" xlink:href="#b"/><linearGradient id="B" x1="826.2" x2="803.74" y1="759.64" y2="901.59" xlink:href="#b"/><linearGradient id="C" x1="832.95" x2="810.5" y1="760.71" y2="902.65" xlink:href="#b"/><linearGradient id="c" x1="463.46" x2="463.46" y1="65.18" y2="777.69" gradientUnits="userSpaceOnUse"><stop offset="0" stop-color="#79d985" stop-opacity=".2" class="stopColor79d985 svgShape"/><stop offset="1" stop-color="#027a71" class="stopColor027a71 svgShape"/></linearGradient><linearGradient id="D" x1="356.16" x2="464.26" y1="633.11" y2="777.24" xlink:href="#b"/><linearGradient id="E" x1="455.98" x2="502.63" y1="635.22" y2="744.07" xlink:href="#a"/><linearGradient id="F" x1="462.51" x2="462.51" y1="76.92" y2="579.36" xlink:href="#c"/><linearGradient id="G" x1="470.57" x2="470.57" y1="370.75" y2="783.73" xlink:href="#a"/><linearGradient id="H" x1="418.33" x2="418.33" y1="561" y2="666.28" xlink:href="#a"/><linearGradient id="I" x1="418.33" x2="418.33" y1="573.36" y2="623.24" xlink:href="#b"/><linearGradient id="J" x1="471.03" x2="471.03" y1="561" y2="666.28" xlink:href="#a"/><linearGradient id="d" x1="471.03" x2="471.03" y1="542.97" y2="603.72" gradientUnits="userSpaceOnUse"><stop offset="0" stop-color="#ffefa4" class="stopColorffefa4 svgShape"/><stop offset="1" stop-color="#fe8f01" class="stopColorfe8f01 svgShape"/></linearGradient><linearGradient id="K" x1="523.73" x2="523.73" y1="561" y2="666.28" xlink:href="#a"/><linearGradient id="L" x1="523.73" x2="523.73" y1="535.53" y2="607.56" xlink:href="#b"/><linearGradient id="M" x1="589.38" x2="425.82" y1="354.16" y2="354.16" xlink:href="#a"/><linearGradient id="N" x1="589.38" x2="425.82" y1="376.24" y2="376.24" xlink:href="#a"/><linearGradient id="O" x1="410.2" x2="466.46" y1="383.35" y2="383.35" gradientUnits="userSpaceOnUse"><stop offset="0" stop-color="#dfe5f2" class="stopColordfe5f2 svgShape"/><stop offset="1" stop-color="#aebddf" class="stopColoraebddf svgShape"/></linearGradient><linearGradient id="P" x1="410.2" x2="450.53" y1="369.26" y2="369.26" gradientUnits="userSpaceOnUse"><stop offset="0" stop-color="#ffcc69" class="stopColorffcc69 svgShape"/><stop offset="1" stop-color="#fe8f01" class="stopColorfe8f01 svgShape"/></linearGradient><linearGradient id="Q" x1="403.99" x2="544.33" y1="462.67" y2="462.67" gradientUnits="userSpaceOnUse"><stop offset="0" stop-color="#79d985" class="stopColor79d985 svgShape"/><stop offset="1" stop-color="#027a71" class="stopColor027a71 svgShape"/></linearGradient><linearGradient id="R" x1="544.33" x2="403.99" y1="462.89" y2="462.89" xlink:href="#d"/><linearGradient id="S" x1="721.46" x2="721.46" y1="57.36" y2="236.59" xlink:href="#d"/><linearGradient id="T" x1="694.65" x2="694.65" y1="100.4" y2="346.63" gradientTransform="rotate(15 694.643 165.137)" xlink:href="#d"/><linearGradient id="U" x1="541.71" x2="774.15" y1="253.26" y2="253.26" xlink:href="#a"/><linearGradient id="V" x1="701.27" x2="694.39" y1="162.01" y2="196.69" xlink:href="#d"/><linearGradient id="W" x1="706.54" x2="682.71" y1="120.03" y2="183.56" xlink:href="#d"/><linearGradient id="X" x1="717.4" x2="693.57" y1="124.1" y2="187.63" xlink:href="#d"/><linearGradient id="Y" x1="694.84" x2="676.58" y1="96.15" y2="172.12" xlink:href="#d"/><linearGradient id="Z" x1="715.15" x2="696.89" y1="101.04" y2="177" xlink:href="#d"/><linearGradient id="aa" x1="682.56" x2="670.65" y1="80.42" y2="164.06" xlink:href="#d"/><linearGradient id="ab" x1="711.77" x2="699.86" y1="84.58" y2="168.22" xlink:href="#d"/><linearGradient id="ac" x1="495.91" x2="589.59" y1="589.7" y2="791.39" xlink:href="#b"/><linearGradient id="ad" x1="645.69" x2="641.47" y1="750.63" y2="845.22" xlink:href="#a"/><linearGradient id="ae" x1="661.44" x2="661.44" y1="873.69" y2="598.08" xlink:href="#b"/><linearGradient id="af" x1="559.77" x2="552.3" y1="782.11" y2="863.67" xlink:href="#a"/><linearGradient id="ag" x1="612.35" x2="612.35" y1="875.03" y2="598.28" xlink:href="#b"/><linearGradient id="ah" x1="653.73" x2="643.81" y1="685.01" y2="794.13" xlink:href="#a"/><linearGradient id="ai" x1="559.41" x2="556.03" y1="785.72" y2="822.98" xlink:href="#a"/><linearGradient id="e" x1="230.11" x2="209.64" y1="957.98" y2="837.39" gradientTransform="rotate(4.34 5267.183 6857.449)" gradientUnits="userSpaceOnUse"><stop offset="0" stop-color="#ffd2bb" class="stopColorffd2bb svgShape"/><stop offset="1" stop-color="#ff6b5a" class="stopColorff6b5a svgShape"/></linearGradient><linearGradient id="aj" x1="676.62" x2="676.62" y1="442.49" y2="695.15" xlink:href="#a"/><linearGradient id="ak" x1="499.41" x2="524.22" y1="-133.11" y2="-16.76" gradientTransform="translate(114.45 462.14)" xlink:href="#e"/><linearGradient id="al" x1="461.76" x2="526" y1="-190.38" y2="-69.13" gradientTransform="translate(114.45 462.14)" xlink:href="#b"/><linearGradient id="am" x1="1728.89" x2="1718.97" y1="-266.2" y2="-191.54" gradientTransform="rotate(-9.22 5251.39 6837.826)" xlink:href="#b"/><linearGradient id="an" x1="639.77" x2="639.77" y1="442.49" y2="695.15" xlink:href="#a"/><linearGradient id="ao" x1="458.74" x2="641.36" y1="431.02" y2="566.92" xlink:href="#e"/><linearGradient id="ap" x1="3035.89" x2="3218.51" y1="-598.69" y2="-462.79" gradientTransform="matrix(.93 -.36 .36 .93 -2172.08 2134.62)" xlink:href="#e"/><linearGradient id="aq" x1="595.17" x2="595.17" y1="442.49" y2="695.15" xlink:href="#a"/><linearGradient id="ar" x1="6.48" x2="903.15" y1="188.98" y2="188.98" xlink:href="#b"/><linearGradient id="as" x1="243.96" x2="339.46" y1="148.03" y2="263.09" xlink:href="#d"/><linearGradient id="at" x1="319.88" x2="460.2" y1="189.99" y2="155.23" xlink:href="#a"/><linearGradient id="au" x1="324.16" x2="464.49" y1="207.28" y2="172.51" xlink:href="#a"/></defs><rect width="1000" height="1000" fill="none"/><g data-name="Axo Extrusion" fill="#000000" class="color000 svgShape"><g data-name="Axo Surface*" fill="#000000" class="color000 svgShape"><polygon fill="url(#a)" points="520.74 244.39 739.83 303.1 739.83 758.37 520.74 699.66 520.74 244.39" data-name="Axo panel"/><polygon fill="url(#f)" points="739.83 303.1 883.93 264.49 883.93 719.75 739.83 758.37 739.83 303.1" data-name="Axo panel"/></g><g data-name="Axo cap" fill="#000000" class="color000 svgShape"><polygon fill="url(#g)" points="520.74 244.39 664.84 205.78 883.93 264.49 739.83 303.1 520.74 244.39" data-name="Axo base"/></g></g><g data-name="Axo cap" fill="#000000" class="color000 svgShape"><path fill="url(#h)" d="M222.8,638.77c0-5.34,7.62-10.68,22.84-14.76,30.44-8.16,79.8-8.16,110.24,0,15.22,4.08,22.83,9.43,22.83,14.77s-7.62,10.69-22.83,14.77c-30.44,8.15-79.8,8.15-110.24,0C230.41,649.47,222.8,644.12,222.8,638.77Z" data-name="Axo base"/></g><g data-name="Axo Surface*" fill="#000000" class="color000 svgShape"><path fill="url(#i)" d="M222.8,518.57c0,4.09,5.82,8.17,17.45,11.29,23.26,6.23,61,6.23,84.22,0,11.63-3.11,17.45-7.2,17.45-11.28V638.92c0,4.08-5.82,8.16-17.45,11.28-23.25,6.23-61,6.23-84.22,0-11.63-3.12-17.45-7.2-17.45-11.29Z" data-name="Axo panel"/></g><g data-name="Axo cap" fill="#000000" class="color000 svgShape"><path fill="url(#b)" d="M222.8,518.57c0-4.08,5.82-8.16,17.45-11.28,23.26-6.23,61-6.23,84.22,0,11.64,3.12,17.45,7.21,17.45,11.29s-5.82,8.17-17.45,11.28c-23.25,6.23-61,6.23-84.22,0C228.62,526.74,222.8,522.66,222.8,518.57Z" data-name="Axo base"/></g><path fill="url(#j)" d="M324.47,524.61c-23.25-6.24-61-6.24-84.22,0a62.85,62.85,0,0,0-7.9,2.63,63.49,63.49,0,0,0,7.9,2.62c23.26,6.23,61,6.23,84.22,0a63.49,63.49,0,0,0,7.9-2.62A62.85,62.85,0,0,0,324.47,524.61Z"/><path fill="url(#k)" d="M282.23,534.67s4.35-89.18,29.11-129.14c30-48.34,93.89-20.79,91.66,24s-5.23,74.07,4.47,81.22c0,0-39.45-28.59-56.66-60.43s-16-64.33,9.4-66.71c0,0-24.86-10.15-45.77,24.69s-26.86,126.33-26.86,126.33S286.84,534.89,282.23,534.67Z"/><path fill="url(#l)" d="M282.23,534.65s-1-90.86-67.79-96.83-82.59,63.81-71,112.69a36.19,36.19,0,0,1,13.13-24.12c12.31-9.84,7.46-23.27,7.83-35.21s73.14,16.42,63.81-47c0,0,49.5,9.33,48.63,90.48Z"/><path fill="url(#m)" d="M287.58,534.65s-1-61.82-30.35-145.12c0,0,19.74-40.64-3.15-59.17S194,308.52,188.29,286.48s-40.46-32.73-72.19-22c0,0-1.9,23.09,23.69,38.85C158.34,314.79,168.67,326,171.66,355c3.79,36.89,41.47,72.14,82.42,38.8,0,0,26.78,62.32,28.15,140.86Z"/><path fill="url(#n)" d="M292.05,341.56s-10.44-26.65,15.43-43.05,48.75-6,57.21-15.91,45.77,3.82,54.72-25.7c0,0,4.23,43.93-47.76,64.29S292.05,341.56,292.05,341.56Z"/><path fill="url(#o)" d="M282.23,534.65S262.7,392.8,287.58,340.56,411.45,320,419.41,256.9c0,0,5,37.39-2.48,53.31s-19.9,9.46-24.38,25.38-71.14,52.73-100.5,6c0,0-11.78,21.84-15,71.08s8.2,122,8.2,122Z"/><path fill="url(#p)" d="M116.1,264.53s-1.9,23.09,23.69,38.85C158.34,314.79,168.67,326,171.66,355c3.79,36.89,41.47,72.14,82.42,38.8C254.08,393.79,210.55,300.94,116.1,264.53Z"/><g data-name="Axo cap" fill="#000000" class="color000 svgShape"><path fill="url(#q)" d="M171.3,776.53c0-3.24,4.61-6.47,13.83-8.94l173-46.36c18.45-4.94,48.35-4.94,66.79,0L869.47,840.35c9.22,2.47,13.83,5.71,13.83,8.95s-4.61,6.47-13.83,8.94l-173,46.36c-18.45,4.94-48.35,4.94-66.79,0L185.13,785.48C175.91,783,171.3,779.77,171.3,776.53Z" data-name="Axo base"/></g><g data-name="Axo Surface*" fill="#000000" class="color000 svgShape"><path fill="url(#r)" d="M146.3,751.73c0,3.24,4.61,6.48,13.83,8.95L604.68,879.79c18.44,5,48.34,5,66.79,0l173-46.35c9.22-2.47,13.83-5.71,13.83-9v19c0,3.24-4.61,6.47-13.83,8.94l-173,46.36c-18.45,4.94-48.35,4.94-66.79,0L160.13,779.71c-9.22-2.47-13.83-5.71-13.83-9Z" data-name="Axo panel"/></g><g data-name="Axo cap" fill="#000000" class="color000 svgShape"><path fill="url(#s)" d="M146.3,751.73c0-3.24,4.61-6.48,13.83-9l173-46.35c18.45-4.94,48.35-4.94,66.79,0L844.47,815.54c9.22,2.47,13.83,5.71,13.83,9s-4.61,6.48-13.83,9l-173,46.35c-18.45,5-48.35,5-66.79,0L160.13,760.68C150.91,758.21,146.3,755,146.3,751.73Z" data-name="Axo base"/></g><g data-name="Axo Projection" fill="#000000" class="color000 svgShape"><path fill="url(#t)" d="M843.61,824.5c0,2.43-3.46,4.86-10.38,6.71L663.15,876.78c-13.85,3.71-36.3,3.71-50.15,0L171.37,758.45c-6.92-1.86-10.38-4.29-10.38-6.72s3.46-4.86,10.38-6.72l170.08-45.57c13.85-3.71,36.3-3.71,50.15,0L833.23,817.77C840.15,819.63,843.61,822.06,843.61,824.5Z" data-name="Axo base"/></g><g data-name="Axo Projection" fill="#000000" class="color000 svgShape"><path fill="url(#u)" d="M749,875.36c-2-.54-3.39-2.8-3.39-5.88,0-4,2.4-7.94,5.35-8.73l21-5.63a3.87,3.87,0,0,1,2,0c2,.53,3.39,2.8,3.39,5.88,0,4-2.4,7.94-5.36,8.73l-21,5.63A3.84,3.84,0,0,1,749,875.36Z" data-name="Axo base"/></g><g data-name="Axo Projection" fill="#000000" class="color000 svgShape"><path fill="url(#v)" d="M700.39,883.46a1.91,1.91,0,0,1-1.16-2,3.08,3.08,0,0,1,1.83-3,1.39,1.39,0,0,1,.67,0,1.91,1.91,0,0,1,1.15,2,3.07,3.07,0,0,1-1.82,3A1.27,1.27,0,0,1,700.39,883.46Z" data-name="Axo base"/></g><g data-name="Axo Projection" fill="#000000" class="color000 svgShape"><path fill="url(#w)" d="M707.62,881.52a1.91,1.91,0,0,1-1.16-2,3.09,3.09,0,0,1,1.83-3,1.27,1.27,0,0,1,.67,0,1.91,1.91,0,0,1,1.15,2,3.1,3.1,0,0,1-1.82,3A1.27,1.27,0,0,1,707.62,881.52Z" data-name="Axo base"/></g><g data-name="Axo Projection" fill="#000000" class="color000 svgShape"><path fill="url(#x)" d="M714.84,879.59a1.94,1.94,0,0,1-1.15-2,3.08,3.08,0,0,1,1.82-3,1.18,1.18,0,0,1,.67,0,1.91,1.91,0,0,1,1.16,2,3.08,3.08,0,0,1-1.83,3A1.38,1.38,0,0,1,714.84,879.59Z" data-name="Axo base"/></g><g data-name="Axo Projection" fill="#000000" class="color000 svgShape"><path fill="url(#y)" d="M722.07,877.65a1.9,1.9,0,0,1-1.15-2,3.07,3.07,0,0,1,1.82-3,1.39,1.39,0,0,1,.67,0,1.93,1.93,0,0,1,1.16,2,3.07,3.07,0,0,1-1.83,3A1.18,1.18,0,0,1,722.07,877.65Z" data-name="Axo base"/></g><g data-name="Axo Projection" fill="#000000" class="color000 svgShape"><path fill="url(#z)" d="M796.39,858.81a1.91,1.91,0,0,1-1.15-2,3.1,3.1,0,0,1,1.82-3,1.27,1.27,0,0,1,.67,0,1.91,1.91,0,0,1,1.16,2,3.09,3.09,0,0,1-1.83,3A1.27,1.27,0,0,1,796.39,858.81Z" data-name="Axo base"/></g><g data-name="Axo Projection" fill="#000000" class="color000 svgShape"><path fill="url(#A)" d="M803.62,856.88a1.91,1.91,0,0,1-1.15-2,3.07,3.07,0,0,1,1.82-3,1.18,1.18,0,0,1,.67,0,1.91,1.91,0,0,1,1.16,2,3.08,3.08,0,0,1-1.83,3A1.39,1.39,0,0,1,803.62,856.88Z" data-name="Axo base"/></g><g data-name="Axo Projection" fill="#000000" class="color000 svgShape"><path fill="url(#B)" d="M810.85,854.94a1.91,1.91,0,0,1-1.16-2,3.08,3.08,0,0,1,1.83-3,1.38,1.38,0,0,1,.67,0,1.94,1.94,0,0,1,1.15,2,3.07,3.07,0,0,1-1.82,3A1.18,1.18,0,0,1,810.85,854.94Z" data-name="Axo base"/></g><g data-name="Axo Projection" fill="#000000" class="color000 svgShape"><path fill="url(#C)" d="M818.07,853a1.91,1.91,0,0,1-1.15-2,3.1,3.1,0,0,1,1.82-3,1.31,1.31,0,0,1,.68,0,1.91,1.91,0,0,1,1.15,2,3.09,3.09,0,0,1-1.83,3A1.27,1.27,0,0,1,818.07,853Z" data-name="Axo base"/></g><g fill="#000000" class="color000 svgShape"><g data-name="Axo Projection" fill="#000000" class="color000 svgShape"><path fill="url(#c)" d="M373.63,711.54c-3.74-1-6.38-5.26-6.38-11.07V279.76c0-7.58,4.51-14.94,10.08-16.43L549.6,217.17a7,7,0,0,1,3.7,0c3.74,1,6.38,5.26,6.38,11.07V648.91c0,7.59-4.51,15-10.08,16.44L377.33,711.51A7,7,0,0,1,373.63,711.54Z" data-name="Axo base"/></g><g data-name="Axo Projection" fill="#000000" class="color000 svgShape"><path fill="url(#D)" d="M544.07,755.34c0,.19-.28.38-.82.53L387.66,797.56a9.21,9.21,0,0,1-4,0c-.55-.15-.82-.35-.82-.54s.27-.39.82-.53L539.26,754.8a9.26,9.26,0,0,1,4,0C543.8,755,544.07,755.14,544.07,755.34Z" data-name="Axo base"/></g><g data-name="Axo Projection" fill="#000000" class="color000 svgShape"><path fill="url(#E)" d="M437.27,681.51a1.74,1.74,0,0,1-1.06-1.83,2.83,2.83,0,0,1,1.67-2.73l66.3-17.76a1.19,1.19,0,0,1,.62,0,1.76,1.76,0,0,1,1.05,1.84,2.81,2.81,0,0,1-1.67,2.72l-66.3,17.77A1.26,1.26,0,0,1,437.27,681.51Z" data-name="Axo base"/></g><g data-name="Axo Projection" fill="#000000" class="color000 svgShape"><path fill="url(#F)" d="M386.8,553.77c-2.41-.65-4.12-3.4-4.12-7.14V338.07c0-4.89,2.92-9.64,6.51-10.6l146.64-39.3a4.58,4.58,0,0,1,2.38,0c2.42.65,4.12,3.4,4.12,7.14V503.85c0,4.89-2.91,9.64-6.5,10.6l-146.64,39.3A4.62,4.62,0,0,1,386.8,553.77Z" data-name="Axo base"/></g><g data-name="Axo Projection" fill="#000000" class="color000 svgShape"><path fill="url(#G)" d="M394.87,555.93c-2.41-.65-4.12-3.4-4.12-7.14V340.23c0-4.89,2.91-9.64,6.51-10.6l146.63-39.29a4.52,4.52,0,0,1,2.39,0c2.41.65,4.12,3.4,4.12,7.14V506c0,4.9-2.91,9.64-6.51,10.61L397.26,555.91A4.62,4.62,0,0,1,394.87,555.93Z" data-name="Axo base"/></g><g data-name="Axo Projection" fill="#000000" class="color000 svgShape"><path fill="url(#H)" d="M413.45,620c-4.95-1.33-8.46-7-8.46-14.66,0-10,6-19.77,13.34-21.75a9.44,9.44,0,0,1,4.89-.05c4.95,1.33,8.46,7,8.46,14.65,0,10-6,19.78-13.35,21.76A9.41,9.41,0,0,1,413.45,620Z" data-name="Axo base"/></g><g data-name="Axo Projection" fill="#000000" class="color000 svgShape"><path fill="url(#I)" d="M412.2,598.92a.68.68,0,0,1-.41-.71,1.1,1.1,0,0,1,.65-1.07L424.23,594a.49.49,0,0,1,.24,0,.69.69,0,0,1,.41.72,1.11,1.11,0,0,1-.65,1.07l-11.79,3.15A.39.39,0,0,1,412.2,598.92Z" data-name="Axo base"/></g><g data-name="Axo Projection" fill="#000000" class="color000 svgShape"><path fill="url(#I)" d="M412.2,604.28a.7.7,0,0,1-.41-.72,1.1,1.1,0,0,1,.65-1.07l11.79-3.16a.49.49,0,0,1,.24,0,.69.69,0,0,1,.41.72,1.11,1.11,0,0,1-.65,1.07l-11.79,3.15A.39.39,0,0,1,412.2,604.28Z" data-name="Axo base"/></g><g data-name="Axo Projection" fill="#000000" class="color000 svgShape"><path fill="url(#I)" d="M412.2,609.63a.7.7,0,0,1-.41-.72,1.11,1.11,0,0,1,.65-1.07l11.79-3.16a.49.49,0,0,1,.24,0,.69.69,0,0,1,.41.72,1.11,1.11,0,0,1-.65,1.07l-11.79,3.15A.39.39,0,0,1,412.2,609.63Z" data-name="Axo base"/></g><g data-name="Axo Projection" fill="#000000" class="color000 svgShape"><path fill="url(#J)" d="M463.85,614.46c-7.27-2-12.42-10.24-12.42-21.54,0-14.75,8.77-29.06,19.6-32a13.69,13.69,0,0,1,7.18-.08c7.28,2,12.43,10.23,12.43,21.54,0,14.75-8.78,29.06-19.61,32A13.69,13.69,0,0,1,463.85,614.46Z" data-name="Axo base"/></g><g data-name="Axo Projection" fill="#000000" class="color000 svgShape"><path fill="url(#d)" d="M462.88,602.54a2.21,2.21,0,0,1-1.34-2.3c0-.15,0-.3,0-.45,1.11-12,7.92-23.1,16.54-26.87a1.62,1.62,0,0,1,1.09-.12,2.56,2.56,0,0,1,1.33,2.34v5.58a1.84,1.84,0,0,1-.94,1.69,12.57,12.57,0,0,0-4,2.51.89.89,0,0,1-.82.23.86.86,0,0,1-.52-.48l-.51-1.1a.89.89,0,0,0-.55-.5.94.94,0,0,0-.89.32l-.11.12a27.36,27.36,0,0,0-3.9,6.36,1.65,1.65,0,0,0,.24,2l.11.07.91.46a1.5,1.5,0,0,1,.4,1.76,23.71,23.71,0,0,0-1.06,5.73,1.73,1.73,0,0,1-1.06,1.57l-4.15,1.11A1.56,1.56,0,0,1,462.88,602.54Z" data-name="Axo base"/></g><g data-name="Axo Projection" fill="#000000" class="color000 svgShape"><path fill="url(#K)" d="M518.85,591.78c-5-1.33-8.46-7-8.46-14.66,0-10,6-19.77,13.34-21.75a9.34,9.34,0,0,1,4.89,0c5,1.33,8.45,7,8.45,14.65,0,10-6,19.78-13.34,21.76A9.41,9.41,0,0,1,518.85,591.78Z" data-name="Axo base"/></g><g data-name="Axo Compound Projection" fill="#000000" class="color000 svgShape"><path fill="url(#L)" d="M528.31,565.51,519.15,568a1.92,1.92,0,0,0-1.14,1.86v9.36c0,.86.51,1.42,1.14,1.25l1.72-.46v2.34a.62.62,0,0,0,.33.61.33.33,0,0,0,.24,0,.68.68,0,0,0,.36-.26l2.7-3.68,3.81-1a1.91,1.91,0,0,0,1.14-1.86v-9.35C529.45,565.91,528.94,565.34,528.31,565.51Zm-6.87,8.86c-.31.08-.57-.2-.57-.63a1,1,0,0,1,.57-.93c.32-.09.58.2.58.63A1,1,0,0,1,521.44,574.37Zm2.29-.61c-.31.08-.57-.2-.57-.63a1,1,0,0,1,.57-.93c.32-.09.57.19.57.62A1,1,0,0,1,523.73,573.76Zm2.29-.62c-.32.09-.57-.19-.57-.62a1,1,0,0,1,.57-.94c.32-.08.57.2.57.63A1,1,0,0,1,526,573.14Z" data-name="Axo Compound"/></g><g data-name="Axo Projection" fill="#000000" class="color000 svgShape"><path fill="url(#M)" d="M481.82,364.67a2.45,2.45,0,0,1-1.49-2.58c0-1.77,1.05-3.49,2.35-3.84l54.51-14.6a1.71,1.71,0,0,1,.87,0,2.46,2.46,0,0,1,1.48,2.58c0,1.77-1,3.49-2.35,3.84l-54.51,14.6A1.57,1.57,0,0,1,481.82,364.67Z" data-name="Axo base"/></g><g data-name="Axo Projection" fill="#000000" class="color000 svgShape"><path fill="url(#N)" d="M481.82,383.29a2.45,2.45,0,0,1-1.49-2.58c0-1.77,1.05-3.49,2.35-3.83l28.69-7.69a1.67,1.67,0,0,1,.86,0,2.48,2.48,0,0,1,1.49,2.59c0,1.77-1.06,3.48-2.35,3.83l-28.69,7.69A1.57,1.57,0,0,1,481.82,383.29Z" data-name="Axo base"/></g></g><g fill="#000000" class="color000 svgShape"><g data-name="Axo Projection" fill="#000000" class="color000 svgShape"><path fill="none" stroke="url(#O)" stroke-miterlimit="10" stroke-width="6" d="M429.13,417.69c-9.33-2.5-15.93-13.12-15.93-27.61,0-18.91,11.25-37.26,25.13-41a17.44,17.44,0,0,1,9.2-.1c9.33,2.5,15.93,13.12,15.93,27.6,0,18.92-11.25,37.26-25.13,41A17.64,17.64,0,0,1,429.13,417.69Z" data-name="Axo base"/></g><g data-name="Axo Projection" fill="#000000" class="color000 svgShape"><path fill="none" stroke="url(#P)" stroke-linecap="round" stroke-linejoin="round" stroke-width="6" d="M413.2,390.08c0-18.91,11.25-37.26,25.13-41a17.44,17.44,0,0,1,9.2-.1" data-name="Axo base"/></g></g><g fill="#000000" class="color000 svgShape"><path fill="none" stroke="url(#Q)" stroke-linecap="round" stroke-linejoin="round" stroke-width="4" d="M406,497.41s32.35-2.36,60.26-44.6c19.65-29.73,34.47-23.46,49.34-20.33s26.74-4.56,26.74-4.56"/><path fill="none" stroke="url(#R)" stroke-linecap="round" stroke-linejoin="round" stroke-width="4" d="M406,510.72s22.7,0,39.62-38.09C457.44,446,471,437.15,496,446.34c30.88,11.37,16.89-30.81,46.34-31.28"/></g><g fill="#000000" class="color000 svgShape"><g data-name="Axo Surface*" fill="#000000" class="color000 svgShape"><path fill="url(#S)" d="M712.39,231.33c24.91-6.67,37.16-41.72,27.36-78.28s-37.93-60.79-62.84-54.12l22.87-6.13c24.91-6.67,53.05,17.56,62.84,54.12s-2.45,71.61-27.36,78.29Z" data-name="Axo panel"/></g><g data-name="Axo cap" fill="#000000" class="color000 svgShape"><ellipse cx="694.65" cy="165.13" fill="url(#T)" data-name="Axo base" rx="46.69" ry="68.54" transform="rotate(-15 694.667 165.136)"/></g><g data-name="Axo Projection" fill="#000000" class="color000 svgShape"><ellipse cx="707.25" cy="253.26" fill="url(#U)" data-name="Axo base" rx="34.27" ry="9.18"/></g><g data-name="Axo Extrusion" fill="#000000" class="color000 svgShape"><g data-name="Axo Surface*" fill="#000000" class="color000 svgShape"><path fill="url(#V)" d="M694.43,197.8c3.06-.82,4.57-5.13,3.37-9.62s-4.67-7.47-7.73-6.65l4.63-1.24c3.06-.82,6.52,2.16,7.72,6.65s-.3,8.8-3.36,9.62Z" data-name="Axo panel"/></g><g data-name="Axo cap" fill="#000000" class="color000 svgShape"><ellipse cx="692.25" cy="189.67" fill="#ffffff" data-name="Axo base" rx="5.74" ry="8.42" transform="rotate(-15 692.25 189.66)" class="colorfff svgShape"/></g></g><g data-name="Axo Extrusion" fill="#000000" class="color000 svgShape"><g data-name="Axo Surface" fill="#000000" class="color000 svgShape"><path fill="url(#W)" d="M680.31,177.9a1.83,1.83,0,0,0,.94-.65,10.79,10.79,0,0,1,5.64-3.86l4.63-1.24a10.71,10.71,0,0,0-5.64,3.86,1.82,1.82,0,0,1-1,.65Z" data-name="Axo panel"/></g><g data-name="Axo Surface*" fill="#000000" class="color000 svgShape"><path fill="url(#X)" d="M706,184.79a1.69,1.69,0,0,0,.75-.43c1-1,1.12-3.08.2-4.72-3.74-6.74-9.1-11.47-14.71-13a13.61,13.61,0,0,0-7.16-.07l4.62-1.24a13.75,13.75,0,0,1,7.17.07c5.6,1.5,11,6.23,14.71,13,.91,1.64.82,3.76-.21,4.72a1.66,1.66,0,0,1-.74.43Z" data-name="Axo panel"/></g><g data-name="Axo cap" fill="#000000" class="color000 svgShape"><path fill="#ffffff" d="M706,184.79a1.83,1.83,0,0,1-.9,0,3.22,3.22,0,0,1-1.86-1.64c-2.8-5-6.81-8.58-11-9.7a10.27,10.27,0,0,0-5.36-.05,10.79,10.79,0,0,0-5.64,3.86,1.83,1.83,0,0,1-.94.65,2.48,2.48,0,0,1-2.56-1.31,4.4,4.4,0,0,1-.21-4.83,14.39,14.39,0,0,1,7.55-5.16,13.61,13.61,0,0,1,7.16.07c5.61,1.5,11,6.23,14.71,13,.92,1.64.82,3.76-.2,4.72A1.69,1.69,0,0,1,706,184.79Z" data-name="Axo base" class="colorfff svgShape"/></g></g><g data-name="Axo Extrusion" fill="#000000" class="color000 svgShape"><g data-name="Axo Surface" fill="#000000" class="color000 svgShape"><path fill="url(#Y)" d="M671.87,164.14a1.86,1.86,0,0,0,.91-.6,19.19,19.19,0,0,1,9.71-6.45l4.63-1.24a19.22,19.22,0,0,0-9.72,6.45,1.78,1.78,0,0,1-.91.6Z" data-name="Axo panel"/></g><g data-name="Axo Surface*" fill="#000000" class="color000 svgShape"><path fill="url(#Z)" d="M714.44,175.55a1.7,1.7,0,0,0,.8-.47c1-1,1.06-3.13.12-4.75-6-10.3-14.38-17.55-23.11-19.89a22.13,22.13,0,0,0-11.53-.1l4.62-1.24a22.16,22.16,0,0,1,11.54.1c8.72,2.34,17.15,9.59,23.11,19.89.93,1.62.88,3.75-.12,4.76a1.82,1.82,0,0,1-.8.46Z" data-name="Axo panel"/></g><g data-name="Axo cap" fill="#000000" class="color000 svgShape"><path fill="#ffffff" d="M714.44,175.55c-.91.25-2-.34-2.71-1.57-5.1-8.81-12-14.77-19.48-16.77a18.71,18.71,0,0,0-9.76-.12,19.19,19.19,0,0,0-9.71,6.45,1.86,1.86,0,0,1-.91.6,1.76,1.76,0,0,1-.91,0,3.08,3.08,0,0,1-1.7-1.36c-1-1.55-1-3.7-.12-4.82a22.85,22.85,0,0,1,11.58-7.61,22.13,22.13,0,0,1,11.53.1c8.73,2.34,17.15,9.59,23.11,19.89.94,1.62.88,3.75-.12,4.75A1.7,1.7,0,0,1,714.44,175.55Z" data-name="Axo base" class="colorfff svgShape"/></g></g><g data-name="Axo Extrusion" fill="#000000" class="color000 svgShape"><g data-name="Axo Surface" fill="#000000" class="color000 svgShape"><path fill="url(#aa)" d="M663.71,150.83a1.84,1.84,0,0,0,.89-.58,27.39,27.39,0,0,1,13.66-8.93l4.63-1.24A27.46,27.46,0,0,0,669.22,149a1.79,1.79,0,0,1-.89.58Z" data-name="Axo panel"/></g><g data-name="Axo Surface*" fill="#000000" class="color000 svgShape"><path fill="url(#ab)" d="M722.61,166.62a1.77,1.77,0,0,0,.81-.49c1-1,1-3.15.09-4.76-8.24-14-19.34-23.46-31.26-26.65a30.3,30.3,0,0,0-15.8-.2l4.63-1.24a30.3,30.3,0,0,1,15.8.2c11.92,3.19,23,12.66,31.25,26.65,1,1.61.91,3.74-.08,4.76a1.8,1.8,0,0,1-.82.49Z" data-name="Axo panel"/></g><g data-name="Axo cap" fill="#000000" class="color000 svgShape"><path fill="#ffffff" d="M722.61,166.62a2.59,2.59,0,0,1-2.7-1.55c-7.29-12.38-17.11-20.76-27.66-23.58a26.72,26.72,0,0,0-14-.17,27.39,27.39,0,0,0-13.66,8.93,1.84,1.84,0,0,1-.89.58,1.76,1.76,0,0,1-.91,0,3.06,3.06,0,0,1-1.72-1.39c-1-1.55-1-3.71-.08-4.81a30.94,30.94,0,0,1,15.45-10.1,30.3,30.3,0,0,1,15.8.2c11.92,3.19,23,12.66,31.26,26.65.94,1.61.9,3.74-.09,4.76A1.77,1.77,0,0,1,722.61,166.62Z" data-name="Axo base" class="colorfff svgShape"/></g></g></g><g fill="#000000" class="color000 svgShape"><g data-name="Axo Projection" fill="#000000" class="color000 svgShape"><path fill="url(#ac)" d="M693.47,816.83c0,6.31-9,12.62-27,17.44-36,9.63-94.25,9.63-130.21,0-18-4.82-27-11.14-27-17.45s9-12.63,27-17.44c36-9.64,94.25-9.64,130.21,0C684.48,804.2,693.47,810.51,693.47,816.83Z" data-name="Axo base"/></g><path fill="url(#ad)" d="M674.87,769.4s-1.82,21.9,1.57,31.41c3.93,11-6.07,18.73-17.63,15.6-9.42-2.54-17.83-8.34-34.38-15.6s-17.36-19.58-9.71-22c6.72-2.08,39.16,11.89,34.79-9Z"/><path fill="url(#ae)" d="M688.79,547s4.68,14.67.3,43.94c-4.59,30.69-13.2,46.25-12.24,53s6.8,53,2.76,88-4.5,42.39-4.5,42.39h0a22.52,22.52,0,0,1-24.83-.41l-.54-.37S636,667.07,635.53,656.59s-3.61-109-3.61-109Z"/><path fill="url(#af)" d="M592,789.67s-1.58,13.48.55,24.81c2.41,12.81-2.77,16.92-8.94,17-19,.36-44.6-2.71-58.86-6.25-8.8-2.18-6.69-14.81,7.38-16.07,28.38-2.53,34.33-20.9,34.33-20.9Z"/><path fill="url(#ag)" d="M657.21,548,602,547s-16.83,44.33-23.49,64.75a164.28,164.28,0,0,0-7.63,49.39c0,12.12-4.49,128.55-4.49,128.55h0a25.78,25.78,0,0,0,25.17.23l.42-.23s22.9-76.62,24.54-101.77,1.65-33.71,4.34-38.31C625.52,641.63,665.45,592.34,657.21,548Z"/><path fill="url(#ah)" d="M674.54,809.91c-4.72,5-17.62,3.06-25.93-2.78s-23-9.65-31.77-16.72c-5.7-4.61-5.31-8.36-4.34-10.41-5,3.91-2.78,14.37,11.93,20.81,16.55,7.26,25,13.06,34.38,15.6,10.72,2.9,20.09-3.5,18.27-13.25A10.2,10.2,0,0,1,674.54,809.91Z"/><path fill="url(#ai)" d="M593,822.49c-3.89,9-57.57,1.43-64.17-.2-3.06-.76-9.68-2.9-8.92-5.64-1.34,3.66.31,7.5,4.8,8.61,14.26,3.54,39.86,6.61,58.86,6.25C588.22,831.43,592.29,829.08,593,822.49Z"/><path fill="url(#e)" d="M697.81,485.6s4.6,38.79,2,55.7-22.47,19.52-27.37,5.91-8.26-63.37-8.26-63.37Z"/><path fill="url(#aj)" d="M661.39,495.82a4,4,0,0,1-2.9-3.3c-1.19-7.88-4.71-32.66-4.79-48.45-.09-19.77,31-26.75,37.42-.38,4.18,17.06,7.26,35.4,8.36,42.26a4,4,0,0,1-2.15,4.23C691.35,493.23,676,499.83,661.39,495.82Z"/><path fill="url(#ak)" d="M654.32,417.9s-6.29-11-5.21-20.11c.81-6.81,12.47-24.14-1.26-41.83-11.12-14.32-45.56-12.17-47.86,9.61-2,19.22-2,23-3.47,27.62-1,3.37,1.85,3.34,3.45,3.34.44,2.08,1.4,8.91,5.89,12.68,6.28,5.28,13.68.88,12.58,15.33Z"/><path fill="url(#al)" d="M605.94,367.16s-12.51.37-13.34-10.33c-1-12.54,13.47-20.27,36.19-16.21,14.29,2.56,21,8.95,21.6,18.39,0,0,8.2,5.94,6.77,23.78-1.06,13.17-7.93,23.38-24.22,23.33-13.67,0-16-11.24-16-11.24s9.63-3.62,7.2-12c-2.24-7.74-11.57-5.12-10.55,3,0,0-.08-2.31-6.28-6.82C604.17,376.77,603.24,370.71,605.94,367.16Z"/><path fill="url(#am)" d="M605.45,428.71s1.65-3,7.64-8.29c8.55-7.55,34.22-9.48,44.14-4.7,5.87,2.83,11.86,11.29,11.86,11.29Z"/><path fill="url(#an)" d="M669.6,422.51c-23.11-6.51-42.75-3.52-57.67,2a97,97,0,0,0-18.18,9.07,20.3,20.3,0,0,0-8.11,24.11c3.53,9.59,7.89,22.06,9.79,30,3.1,12.93-1.44,65.27-2.36,75.43a4.13,4.13,0,0,0-.16,1.73c.49,3.5,6,6.31,16.33,7.58,20.71,2.55,53.06-2,72.27-10.14,9.61-4.08,14.1-8.28,13.61-11.79a3.72,3.72,0,0,0-.24-.85c-1-3.55-4.76-17.48-6.42-27.57-5.3-32.1-.55-40.47,2.25-66.79C692.87,435.09,684.48,426.71,669.6,422.51Z"/></g><path fill="url(#ao)" d="M574.54,533.83c-13.37-7.16-64.27-51.73-74.34-54.55s-13-4-14.87-5.72-1.58-4.19.35-5.2a3,3,0,0,1,.48-4.4,4.25,4.25,0,0,1,.57-3.74,3.71,3.71,0,0,1,3-1.4s-9.25-7-11.07-8.46c-3.43-2.68-.95-7.63,4.45-4.36s24.83,13.93,26.94,16.8a32.13,32.13,0,0,0,12,9.29c5.93,2.67,54.35,25.42,65.44,32.18C610.61,518.31,590.56,542.41,574.54,533.83Z"/><g fill="#000000" class="color000 svgShape"><path fill="url(#ap)" d="M573.18,489.15s-2.4,8.57-6.94,26.79c-5,20.29,27.12,31,34.23,3.28s6.29-26.15,6.29-26.15Z"/><path fill="url(#aq)" d="M569.69,494.36a4.07,4.07,0,0,1-1.24-4.35c2.43-7.67,10.06-31.33,16-45.89,8.37-20.6,42.35-11.13,37.11,15.51-3.46,17.56-10.47,35.77-13,42.12a4.05,4.05,0,0,1-3.59,2.54C598.46,504.57,581.44,504.25,569.69,494.36Z"/></g><g fill="#000000" class="color000 svgShape"><path fill="url(#ar)" d="M268.15,250.27c-3.3-.88-5.64-4.64-5.64-9.76V188c0-6.69,4-13.17,8.89-14.49l170.9-45.79a6.19,6.19,0,0,1,3.25,0c3.3.89,5.64,4.64,5.64,9.76V190c0,6.68-4,13.17-8.89,14.48l-170.9,45.8A6.29,6.29,0,0,1,268.15,250.27Z" data-name="Axo base"/><g data-name="Axo Projection" fill="#000000" class="color000 svgShape"><path fill="url(#as)" d="M273.3,241.53c-1.26-.34-2.16-1.78-2.16-3.75v-50c0-2.56,1.53-5,3.41-5.56l36.67-9.82a2.42,2.42,0,0,1,1.25,0c1.27.34,2.16,1.79,2.16,3.75v50c0,2.57-1.52,5.06-3.41,5.56l-36.67,9.83A2.52,2.52,0,0,1,273.3,241.53Z" data-name="Axo base"/></g><path fill="#ffffff" d="M298.45,213.36a9.81,9.81,0,0,0-1.53-.28,16.68,16.68,0,0,0,4.48-11.42c0-4.91-2.23-8.5-5.39-9.35a6,6,0,0,0-3.12,0c-4.7,1.26-8.51,7.47-8.51,13.88,0,4.42,1.81,7.77,4.48,9-6.44,4.13-11.17,13.42-11.17,22.95,0,.84.05,1.66.12,2.45L308,232.56c.07-.83.12-1.67.12-2.51C308.08,221.29,304.09,214.87,298.45,213.36Z" class="colorfff svgShape"/><g data-name="Axo Projection" fill="#000000" class="color000 svgShape"><path fill="url(#at)" d="M335.92,188.78a1.44,1.44,0,0,1-.87-1.51,2.35,2.35,0,0,1,1.38-2.26l99.48-26.65a1,1,0,0,1,.51,0,1.46,1.46,0,0,1,.87,1.52,2.33,2.33,0,0,1-1.38,2.25l-99.48,26.66A.89.89,0,0,1,335.92,188.78Z" data-name="Axo base"/></g><g data-name="Axo Projection" fill="#000000" class="color000 svgShape"><path fill="url(#au)" d="M335.92,206.67a1.44,1.44,0,0,1-.87-1.51,2.35,2.35,0,0,1,1.38-2.26l54.06-14.48a.88.88,0,0,1,.51,0,1.43,1.43,0,0,1,.87,1.51,2.34,2.34,0,0,1-1.38,2.26l-54.06,14.48A.89.89,0,0,1,335.92,206.67Z" data-name="Axo base"/></g></g></svg>